<svg height="512" viewBox="0 0 512 512" width="512" xmlns="http://www.w3.org/2000/svg"><g id="Outline"><path d="m464 64h-96v16h96a16.019 16.019 0 0 1 16 16v152a16.019 16.019 0 0 1 -16 16h-40a8 8 0 0 0 -8 8v16h-11.471l-19.2-32 19.2-32h11.471v16a8 8 0 0 0 8 8h32a8 8 0 0 0 8-8v-136a8 8 0 0 0 -8-8h-88v16h80v120h-16v-16a8 8 0 0 0 -8-8h-24a8 8 0 0 0 -6.86 3.884l-24 40a8 8 0 0 0 0 8.232l24 40a8 8 0 0 0 6.86 3.884h24a8 8 0 0 0 8-8v-16h32a32.036 32.036 0 0 0 32-32v-152a32.036 32.036 0 0 0 -32-32z"/><path d="m16 264v152a32.036 32.036 0 0 0 32 32h32v16a8 8 0 0 0 8 8h24a8 8 0 0 0 6.86-3.884l24-40a8 8 0 0 0 0-8.232l-24-40a8 8 0 0 0 -6.86-3.884h-24a8 8 0 0 0 -8 8v16h-16v-120h80v-16h-88a8 8 0 0 0 -8 8v136a8 8 0 0 0 8 8h32a8 8 0 0 0 8-8v-16h11.471l19.2 32-19.2 32h-11.471v-16a8 8 0 0 0 -8-8h-40a16.019 16.019 0 0 1 -16-16v-152a16.019 16.019 0 0 1 16-16h96v-16h-96a32.036 32.036 0 0 0 -32 32z"/><path d="m208 216h16v16h-16z"/><path d="m240 216h64v16h-64z"/><path d="m208 248h96v16h-96z"/><path d="m208 280h96v16h-96z"/><path d="m344 16h-176a8 8 0 0 0 -8 8v128a8 8 0 0 0 8 8h80v24h-80a8 8 0 0 0 -8 8v128a8 8 0 0 0 8 8h80v24h-80a8 8 0 0 0 -8 8v128a8 8 0 0 0 8 8h176a8 8 0 0 0 8-8v-128a8 8 0 0 0 -8-8h-80v-24h80a8 8 0 0 0 8-8v-128a8 8 0 0 0 -8-8h-80v-24h80a8 8 0 0 0 8-8v-128a8 8 0 0 0 -8-8zm-8 352v112h-160v-112zm0-56h-160v-112h160zm0-168h-160v-112h160z"/><path d="m208 48h16v16h-16z"/><path d="m240 48h64v16h-64z"/><path d="m208 80h96v16h-96z"/><path d="m208 112h96v16h-96z"/><path d="m208 384h16v16h-16z"/><path d="m240 384h64v16h-64z"/><path d="m208 416h96v16h-96z"/><path d="m208 448h96v16h-96z"/></g></svg>